name ./resultDataOpenSim/trcMotMarkerGrf/sub10/grf-14-05.mot
datacolumns 19
datarows 17
range 0.48400000 0.54800000
endheader

                time	     ground_force_vx	     ground_force_vy	     ground_force_vz	     ground_force_px	     ground_force_py	     ground_force_pz	   l_ground_force_vx	   l_ground_force_vy	   l_ground_force_vz	   l_ground_force_px	   l_ground_force_py	   l_ground_force_pz	     ground_torque_x	     ground_torque_y	     ground_torque_z	   l_ground_torque_x	   l_ground_torque_y	   l_ground_torque_z	
          0.48400000	         70.30358812	        553.97650886	        -35.19088608	         -0.84843514	          0.00000000	         -0.00347780	          0.00000000	          0.00000000	          0.00000000	          0.00000000	          0.00000000	          0.00000000	          0.00000000	          3.85704731	          0.00000000	          0.00000000	          0.00000000	          0.00000000	
          0.48800000	         72.39782650	        564.19594183	        -36.05768489	         -0.84608892	          0.00000000	         -0.00326962	          0.00000000	          0.00000000	          0.00000000	          0.00000000	          0.00000000	          0.00000000	          0.00000000	          3.83771990	          0.00000000	          0.00000000	          0.00000000	          0.00000000	
          0.49200000	         74.71113411	        575.04228955	        -37.03420186	         -0.84356423	          0.00000000	         -0.00310168	          0.00000000	          0.00000000	          0.00000000	          0.00000000	          0.00000000	          0.00000000	          0.00000000	          3.79769311	          0.00000000	          0.00000000	          0.00000000	          0.00000000	
          0.49600000	         77.16413117	        586.34565599	        -38.11339942	         -0.84083377	          0.00000000	         -0.00297945	          0.00000000	          0.00000000	          0.00000000	          0.00000000	          0.00000000	          0.00000000	          0.00000000	          3.73550529	          0.00000000	          0.00000000	          0.00000000	          0.00000000	
          0.50000000	         79.59092101	        597.94418236	        -39.22580003	         -0.83787789	          0.00000000	         -0.00290887	          0.00000000	          0.00000000	          0.00000000	          0.00000000	          0.00000000	          0.00000000	          0.00000000	          3.65184731	          0.00000000	          0.00000000	          0.00000000	          0.00000000	
          0.50400000	         81.78868781	        609.71256338	        -40.24638834	         -0.83469112	          0.00000000	         -0.00290122	          0.00000000	          0.00000000	          0.00000000	          0.00000000	          0.00000000	          0.00000000	          0.00000000	          3.55051718	          0.00000000	          0.00000000	          0.00000000	          0.00000000	
          0.50800000	         83.58375378	        621.56714114	        -41.01726911	         -0.83131686	          0.00000000	         -0.00295675	          0.00000000	          0.00000000	          0.00000000	          0.00000000	          0.00000000	          0.00000000	          0.00000000	          3.43857477	          0.00000000	          0.00000000	          0.00000000	          0.00000000	
          0.51200000	         84.89549397	        633.45922804	        -41.37982232	         -0.82780999	          0.00000000	         -0.00307540	          0.00000000	          0.00000000	          0.00000000	          0.00000000	          0.00000000	          0.00000000	          0.00000000	          3.32522507	          0.00000000	          0.00000000	          0.00000000	          0.00000000	
          0.51600000	         85.77865751	        645.36985180	        -41.21083841	         -0.82423804	          0.00000000	         -0.00325827	          0.00000000	          0.00000000	          0.00000000	          0.00000000	          0.00000000	          0.00000000	          0.00000000	          3.21956693	          0.00000000	          0.00000000	          0.00000000	          0.00000000	
          0.52000000	         86.42625273	        657.31302721	        -40.45453199	         -0.82068204	          0.00000000	         -0.00350068	          0.00000000	          0.00000000	          0.00000000	          0.00000000	          0.00000000	          0.00000000	          0.00000000	          3.12794018	          0.00000000	          0.00000000	          0.00000000	          0.00000000	
          0.52400000	         87.12538768	        669.34680798	        -39.13750356	         -0.81722306	          0.00000000	         -0.00379511	          0.00000000	          0.00000000	          0.00000000	          0.00000000	          0.00000000	          0.00000000	          0.00000000	          3.05182144	          0.00000000	          0.00000000	          0.00000000	          0.00000000	
          0.52800000	         88.17977034	        681.58506903	        -37.36526748	         -0.81392844	          0.00000000	         -0.00413235	          0.00000000	          0.00000000	          0.00000000	          0.00000000	          0.00000000	          0.00000000	          0.00000000	          2.98699235	          0.00000000	          0.00000000	          0.00000000	          0.00000000	
          0.53200000	         89.83976581	        694.17060170	        -35.31759710	         -0.81085851	          0.00000000	         -0.00450331	          0.00000000	          0.00000000	          0.00000000	          0.00000000	          0.00000000	          0.00000000	          0.00000000	          2.92423390	          0.00000000	          0.00000000	          0.00000000	          0.00000000	
          0.53600000	         92.27201313	        707.16608037	        -33.23429313	         -0.80807484	          0.00000000	         -0.00489994	          0.00000000	          0.00000000	          0.00000000	          0.00000000	          0.00000000	          0.00000000	          0.00000000	          2.85138923	          0.00000000	          0.00000000	          0.00000000	          0.00000000	
          0.54000000	         95.54420673	        720.44785566	        -31.36177072	         -0.80559813	          0.00000000	         -0.00531985	          0.00000000	          0.00000000	          0.00000000	          0.00000000	          0.00000000	          0.00000000	          0.00000000	          2.75642541	          0.00000000	          0.00000000	          0.00000000	          0.00000000	
          0.54400000	         99.61060718	        733.76572942	        -29.87565803	         -0.80338619	          0.00000000	         -0.00576491	          0.00000000	          0.00000000	          0.00000000	          0.00000000	          0.00000000	          0.00000000	          0.00000000	          2.63098393	          0.00000000	          0.00000000	          0.00000000	          0.00000000	
          0.54800000	        104.34644664	        746.93946307	        -28.82345909	         -0.80139338	          0.00000000	         -0.00624264	          0.00000000	          0.00000000	          0.00000000	          0.00000000	          0.00000000	          0.00000000	          0.00000000	          2.47367559	          0.00000000	          0.00000000	          0.00000000	          0.00000000	
